# xmcd CD database file
# Copyright (C) 1997 Ti Kan
# 
# Track frame offsets:
#     150
#     14470
#     28807
#     48660
#     64320
#     86142
#     99362
#     116955
#     137585
#     156665
#     176065
#     186285
#     207262
#     221925
#     244350
# 
# Disc length: 3393 seconds
# 
# Revision: 1
# Processed by: cddbd v1.4b41PL1 Copyright (c) Steve Scherf et al.
# Submitted via: DiscPlay 4.0.4
# 
DISCID=ef0d3f0f
DTITLE=The Pretty Things * Yardbird Blues Band - Chicago Blues Tapes
DYEAR=1900
DGENRE=
TTITLE0=You Can't Judge A Book
TTITLE1=Down In The Bottom
TTITLE2=Hush-Hush
TTITLE3=Can't Hold Out
TTITLE4=Spoonful
TTITLE5=She Fooled Me
TTITLE6=Time Is On My Side
TTITLE7=Scratch My Back
TTITLE8=Long Tall Shorty
TTITLE9=Diddley Daddy
TTITLE10=Ain't Got You
TTITLE11=Caress Me Baby
TTITLE12=Here's My Picture
TTITLE13=Chain Of Fools
TTITLE14=Don't Start Cryin' Now
EXTD=
EXTT0=
EXTT1=
EXTT2=
EXTT3=
EXTT4=
EXTT5=
EXTT6=
EXTT7=
EXTT8=
EXTT9=
EXTT10=
EXTT11=
EXTT12=
EXTT13=
EXTT14=
PLAYORDER=
